# xmcd
#
# Track frame offsets:
#	150
#	57105
#	113029
#	158237
#
# Disc length: 2635 seconds
#
# Revision: 1
# Processed by: cddbd v1.5.2PL0 Copyright (c) Steve Scherf et al.
# Submitted via: audiograbber 1.83.01
#
DISCID=290a4904
DTITLE=Grateful Dead - 78-01-31 Uptown Theatre, Chicago IL
DYEAR=1900
DGENRE=
TTITLE0=Let It Grow
TTITLE1=Scarlet Begonias
TTITLE2=Fire On The Mountain
TTITLE3=Samson and Delilah
EXTD=
EXTT0=
EXTT1=
EXTT2=
EXTT3=
PLAYORDER=
